<?xml version="1.0" encoding="utf-8"?>
<!-- Generator: Adobe Illustrator 27.7.0, SVG Export Plug-In . SVG Version: 6.00 Build 0)  -->
<svg version="1.1" id="Layer_1" xmlns="http://www.w3.org/2000/svg" xmlns:xlink="http://www.w3.org/1999/xlink" x="0px" y="0px"
	 viewBox="0 0 16 16" style="enable-background:new 0 0 16 16;" xml:space="preserve">
<style type="text/css">
	.st0{fill:#F1F1F1;}
</style>
<g>
	<path class="st0" d="M5.5,10.1c0-0.3-0.1-0.5-0.2-0.7S4.9,9.1,4.5,8.9c-0.9-0.4-1.6-0.7-2-1.1S1.9,6.8,1.9,6.1
		c0-0.7,0.2-1.2,0.7-1.6c0.4-0.4,1-0.7,1.8-0.7V2.5h0.9v1.3c0.7,0.1,1.3,0.4,1.7,0.9s0.6,1.1,0.6,1.8l0,0H5.6c0-0.4-0.1-0.7-0.2-1
		S4.9,5.2,4.7,5.2C4.4,5.2,4.2,5.3,4,5.5S3.8,5.9,3.8,6.1c0,0.3,0.1,0.5,0.2,0.7s0.4,0.3,0.8,0.5c0.9,0.4,1.6,0.8,2,1.2
		s0.6,0.9,0.6,1.6c0,0.7-0.2,1.2-0.6,1.6s-1,0.7-1.7,0.7v1.2H4.2v-1.2c-0.8-0.1-1.4-0.3-1.9-0.8s-0.7-1.1-0.7-2l0,0h1.9
		c0,0.5,0.1,0.8,0.3,1S4.3,11,4.7,11c0.3,0,0.5-0.1,0.6-0.2S5.5,10.4,5.5,10.1z"/>
	<path class="st0" d="M15,7.9c0,0.7-0.2,1.2-0.5,1.7s-0.8,0.7-1.3,0.7c-0.3,0-0.6-0.1-0.9-0.2s-0.6-0.3-0.9-0.6
		c-0.2-0.2-0.3-0.3-0.5-0.4S10.7,9,10.5,9c-0.2,0-0.3,0.1-0.4,0.3S9.9,9.7,9.9,10L8.6,9.8c0-0.7,0.2-1.2,0.5-1.7s0.8-0.7,1.3-0.7
		c0.3,0,0.6,0.1,0.9,0.2s0.6,0.3,0.9,0.6c0.2,0.2,0.3,0.3,0.4,0.4s0.3,0.1,0.4,0.1c0.2,0,0.3-0.1,0.4-0.3c0.1-0.2,0.2-0.4,0.2-0.7
		L15,7.9z"/>
</g>
</svg>
