<?xml version="1.0" encoding="utf-8"?>
<!-- Generator: Adobe Illustrator 27.7.0, SVG Export Plug-In . SVG Version: 6.00 Build 0)  -->
<svg version="1.1" id="Layer_1" xmlns="http://www.w3.org/2000/svg" xmlns:xlink="http://www.w3.org/1999/xlink" x="0px" y="0px"
	 viewBox="0 0 32 32" style="enable-background:new 0 0 32 32;" xml:space="preserve">
<style type="text/css">
	.st0{fill:#F1F1F1;}
</style>
<path class="st0" d="M15.9,31.7c-8.4,0-15.3-6.8-15.3-15.3c0-8.4,6.8-15.3,15.3-15.3s15.3,6.8,15.3,15.3
	C31.2,24.9,24.3,31.7,15.9,31.7z M15.9,3C8.5,3,2.5,9.1,2.5,16.5s6,13.4,13.4,13.4c7.4,0,13.4-6,13.4-13.4S23.3,3,15.9,3z"/>
<polygon class="st0" points="21.5,7.4 15.9,13.3 10.4,7.4 8.7,9 15.2,15.9 16.7,15.9 23.2,9 "/>
<polygon class="st0" points="21.5,25.3 15.9,19.3 10.4,25.3 8.7,23.7 15.2,16.8 16.7,16.8 23.2,23.7 "/>
</svg>
